<svg width="50" height="45" viewBox="0 0 50 45" fill="none" xmlns="http://www.w3.org/2000/svg">
<path d="M9.72222 5.55554H1.38889C0.625 5.55554 0 6.18054 0 6.94443V37.5C0 38.2639 0.625 38.8889 1.38889 38.8889H9.72222C10.4861 38.8889 11.1111 38.2639 11.1111 37.5V6.94443C11.1111 6.18054 10.4861 5.55554 9.72222 5.55554ZM8.33333 13.8889H2.77778V11.1111H8.33333V13.8889ZM23.6111 5.55554H15.2778C14.5139 5.55554 13.8889 6.18054 13.8889 6.94443V37.5C13.8889 38.2639 14.5139 38.8889 15.2778 38.8889H23.6111C24.375 38.8889 25 38.2639 25 37.5V6.94443C25 6.18054 24.375 5.55554 23.6111 5.55554ZM22.2222 13.8889H16.6667V11.1111H22.2222V13.8889Z" fill="black"/>
<path d="M33.2056 7.70278L25.7639 11.4528C25.4351 11.6183 25.1854 11.9076 25.0698 12.2571C24.9542 12.6066 24.982 12.9877 25.1472 13.3167L37.6472 38.1222C37.8128 38.451 38.1021 38.7007 38.4516 38.8163C38.801 38.932 39.1822 38.9041 39.5111 38.7389L46.9528 34.9889C47.2816 34.8234 47.5313 34.5341 47.6469 34.1846C47.7625 33.8351 47.7347 33.454 47.5695 33.125L35.0695 8.31945C34.9039 7.99063 34.6146 7.74098 34.2651 7.62535C33.9156 7.50972 33.5345 7.53757 33.2056 7.70278Z" fill="black"/>
<path d="M40.2778 37.5C40.2778 37.8683 40.1314 38.2216 39.871 38.4821C39.6105 38.7425 39.2572 38.8889 38.8889 38.8889C38.5205 38.8889 38.1673 38.7425 37.9068 38.4821C37.6463 38.2216 37.5 37.8683 37.5 37.5C37.5 37.1316 37.6463 36.7783 37.9068 36.5179C38.1673 36.2574 38.5205 36.1111 38.8889 36.1111C39.2572 36.1111 39.6105 36.2574 39.871 36.5179C40.1314 36.7783 40.2778 37.1316 40.2778 37.5Z" fill="black"/>
</svg>
